# xmcd CD database file
#
# Track frame offsets:
#	150
#	24125
#	39545
#	56400
#	74467
#	93070
#	109352
#	122047
#	133515
#	154025
#	170915
#	189627
#	204617
#	222972
#	240252
#	260772
#	275305
#	295732
#	311540
#	325290
#
# Disc length: 4577 seconds
#
# Revision: 0
# Processed by: cddbd v1.5.1PL2 Copyright (c) Steve Scherf et al.
# Submitted via: CDex 1.51
#
DISCID=2411df14
DTITLE=Various Artist - HITS 6
DYEAR=1999
DGENRE=INTERNATIONAL(POPS)
TTITLE0=レイ・オブ・ライト
TTITLE1=S.O.S.
TTITLE2=エヴリ・モーニング
TTITLE3=ザ・ボーイ・イズ・マイン
TTITLE4=アイ・ドント・ウォント・トゥ・ウェイト
TTITLE5=マニア
TTITLE6=ワン・ウィーク
TTITLE7=愛しのデニース
TTITLE8=ラン
TTITLE9=ハンズ
TTITLE10=アイ・ウォント・フォゲッチュー
TTITLE11=ライフ・エイント・イージー
TTITLE12=アイム・ユアーズ
TTITLE13=アナザー・ウェイ
TTITLE14=ヒューマン・ビーイングス
TTITLE15=ディス・キッス
TTITLE16=マイ・ファーザーズ・アイズ
TTITLE17=デイスリーパー
TTITLE18=バラ色の人生
TTITLE19=ハレルヤ・ハリケーン'99
EXTD=YEAR: 1999
EXTT0=
EXTT1=
EXTT2=
EXTT3=
EXTT4=
EXTT5=
EXTT6=
EXTT7=
EXTT8=
EXTT9=
EXTT10=
EXTT11=
EXTT12=
EXTT13=
EXTT14=
EXTT15=
EXTT16=
EXTT17=
EXTT18=
EXTT19=
PLAYORDER=
